<svg xmlns="http://www.w3.org/2000/svg" width="60" height="73.684" viewBox="0 0 60 73.684"><defs><style>.a{fill:#fff;fill-rule:evenodd;}</style></defs><g transform="translate(-1.486)"><path class="a" d="M50.851,21.5c-.089-9.318,7.613-13.808,7.961-14.021A17.2,17.2,0,0,0,45.336.17C39.6-.406,34.14,3.552,31.228,3.552S23.826.258,19.072.351A18.023,18.023,0,0,0,3.823,9.584C-2.671,20.86,2.163,37.561,8.5,46.709c3.091,4.467,6.786,9.506,11.631,9.324C24.8,55.85,26.561,53.02,32.2,53.02s7.225,3.014,12.168,2.921c5.015-.09,8.2-4.563,11.276-9.048a40.55,40.55,0,0,0,5.1-10.486,16.263,16.263,0,0,1-9.89-14.9h0Z" transform="translate(0.745 17.646)"/><path class="a" d="M11.131,11.77A16.232,16.232,0,0,0,14.96,0,16.513,16.513,0,0,0,4.1,5.585C1.719,8.346-.37,12.755.2,16.983c4.135.321,8.358-2.1,10.934-5.213Z" transform="translate(31.196)"/></g></svg>