<svg xmlns="http://www.w3.org/2000/svg" width="60.001" height="64.005" viewBox="0 0 60.001 64.005"><defs><style>.a{fill:#fff;}</style></defs><g transform="translate(-0.007 -0.001)"><path class="a" d="M30.177,27.945l9.8-9.8L8.948,1.024a8.128,8.128,0,0,0-7.932.02Z" transform="translate(3.027 0)"/><path class="a" d="M1.127.95A7.459,7.459,0,0,0,.007,4.858V53.443a7.483,7.483,0,0,0,1.044,3.812L30.376,27.931Z" transform="translate(0 2.847)"/><path class="a" d="M28.885,10.2,19.541,5.041l-10.5,10.5L21.909,27.405l6.98-3.852a7.559,7.559,0,0,0,0-13.356Z" transform="translate(27.103 15.12)"/><path class="a" d="M30.388,8.373l-29.4,29.4A8.24,8.24,0,0,0,5.067,38.89a8.22,8.22,0,0,0,3.98-1.036L42.4,19.449,30.388,8.373Z" transform="translate(2.928 25.116)"/></g></svg>