<svg xmlns="http://www.w3.org/2000/svg" viewBox="0 0 188.37 47"><defs><style>.cls-1{fill:#ec1c24;}.cls-2{fill:#221f1f;}</style></defs><title>47height</title><g id="Layer_2" data-name="Layer 2"><g id="Layer_1-2" data-name="Layer 1"><path class="cls-1" d="M37.73,9.48,37.1,9,26.77.56a1.77,1.77,0,0,0-2.6,0C19,4.7,13.83,8.73,8.64,12.81c-2.55,2-5.11,4-7.65,6-.63.5-1.42,1.08-.71,2s1.4.42,2.09-.13c1.51-1.2,3-2.37,4.55-3.56q8.65-6.84,17.31-13.66a9.55,9.55,0,0,1,1.31-.74,13,13,0,0,1,1.16.77l11,8.93Z"/><path class="cls-1" d="M37.73,43.62c-1.48,0-3,0-4.43,0-1.1,0-1.53-.36-1.5-1.48.05-2.61,0-5.21,0-7.81,0-2.11-.37-2.51-2.51-2.54-2.55,0-5.11,0-7.67,0-1.78,0-2.23.48-2.25,2.25,0,2.78,0,5.56,0,8.34,0,1.12-.39,1.5-1.5,1.49-3.32,0-6.64,0-10,0-1.67,0-1.72-.05-1.73-1.76,0-5.83,0-11.67,0-17.5A3.85,3.85,0,0,0,6,22.91a1.69,1.69,0,0,0-1.22-.79c-.27,0-.65.56-.87.93a1.88,1.88,0,0,0-.12.93c0,6.77,0,13.55,0,20.33,0,1.31.61,2,1.84,2,4.8,0,9.59,0,14.39-.06,1.37,0,1.88-.73,1.86-2.06,0-2.82,0-5.65,0-8.48,0-1,.33-1.47,1.4-1.43,1.7,0,3.41,0,5.11,0,.77,0,1.12.19,1.11,1.06,0,2.87.07,5.74.1,8.61,0,1.72.36,2.13,2,2.14,2.06,0,4.12,0,6.18,0Z"/><path class="cls-2" d="M57.44,2.39l-5,44.17H46.78l-5-44.17H46.9l2.53,34.26v.63a1,1,0,0,0,0,.48c0,.19.1.28.19.28s.14-.09.19-.28a1,1,0,0,0,0-.48.13.13,0,0,1,0-.16.48.48,0,0,0,0-.22v-.25L52.33,2.39Z"/><path class="cls-2" d="M72.68,42.58a1.66,1.66,0,0,0,.79-.44,3,3,0,0,0,.66-.85,4.51,4.51,0,0,0,.22-1.42l.07-2.27H79v2a7.91,7.91,0,0,0-.06.94,4.54,4.54,0,0,0-.07.86,2.86,2.86,0,0,1-.12.85A6.1,6.1,0,0,1,78,43.91a5.88,5.88,0,0,1-.91,1.26,10.82,10.82,0,0,1-1.52,1.14,5.3,5.3,0,0,1-2.9.69H68.8a5.3,5.3,0,0,1-2.9-.69,10.82,10.82,0,0,1-1.52-1.14,5.88,5.88,0,0,1-.91-1.26,6.1,6.1,0,0,1-.67-1.64,5.09,5.09,0,0,1-.18-.85,5.51,5.51,0,0,1-.07-.86,3.69,3.69,0,0,1,0-.94V9.33a3.77,3.77,0,0,1,0-.95,5,5,0,0,1,.07-.82,6.87,6.87,0,0,1,.18-.88A6,6,0,0,1,63.47,5a5.88,5.88,0,0,1,.91-1.26A9.45,9.45,0,0,1,65.9,2.64,5.3,5.3,0,0,1,68.8,2h3.66a5.3,5.3,0,0,1,2.9.69,9.45,9.45,0,0,1,1.52,1.14A5.88,5.88,0,0,1,77.79,5a5.64,5.64,0,0,1,.66,1.64,3,3,0,0,1,.13.88,5.17,5.17,0,0,0,.06.82,6.45,6.45,0,0,0,.07.95v1.89H74.16v-5H69.75a6.07,6.07,0,0,0-1,.19,1.53,1.53,0,0,0-.73.38,3.16,3.16,0,0,0-.66.85,4.51,4.51,0,0,0-.22,1.42l-.06,3.15V36.71l.06,3.16a4.51,4.51,0,0,0,.22,1.42,3.16,3.16,0,0,0,.66.85,1.79,1.79,0,0,0,.95.44,5.44,5.44,0,0,0,1.13.13h1.65a3.33,3.33,0,0,0,.91-.13"/><path class="cls-2" d="M93.31,42.58a1.66,1.66,0,0,0,.79-.44,3,3,0,0,0,.66-.85A4.74,4.74,0,0,0,95,39.87l.06-2.27h4.54v2a7.91,7.91,0,0,0-.06.94,5.61,5.61,0,0,0-.06.86,2.86,2.86,0,0,1-.13.85,6.41,6.41,0,0,1-.66,1.64,5.87,5.87,0,0,1-.92,1.26,10.59,10.59,0,0,1-1.51,1.14,5.34,5.34,0,0,1-2.9.69H89.43a5.3,5.3,0,0,1-2.9-.69A10,10,0,0,1,85,45.17a5.87,5.87,0,0,1-.92-1.26,6.06,6.06,0,0,1-.66-1.64,4.24,4.24,0,0,1-.19-.85,6.92,6.92,0,0,1-.06-.86,3,3,0,0,1,0-.94V9.33a3,3,0,0,1,0-.95,6.21,6.21,0,0,1,.06-.82,5.54,5.54,0,0,1,.19-.88A5.94,5.94,0,0,1,84.1,5,5.87,5.87,0,0,1,85,3.78a8.83,8.83,0,0,1,1.51-1.14A5.3,5.3,0,0,1,89.43,2h3.66A5.36,5.36,0,0,1,96,2.64a9.74,9.74,0,0,1,1.51,1.14A5.88,5.88,0,0,1,98.42,5a6,6,0,0,1,.67,1.64,3.33,3.33,0,0,1,.12.88,4.18,4.18,0,0,0,.07.82,8.07,8.07,0,0,0,.06.95v1.89H94.8v-5H90.38a6.29,6.29,0,0,0-1,.19,1.49,1.49,0,0,0-.72.38,3.24,3.24,0,0,0-.67.85,4.84,4.84,0,0,0-.22,1.42l-.06,3.15V36.71l.06,3.16A4.84,4.84,0,0,0,88,41.29a3.24,3.24,0,0,0,.67.85,1.76,1.76,0,0,0,.94.44,5.46,5.46,0,0,0,1.14.13H92.4a3.28,3.28,0,0,0,.91-.13"/><path class="cls-2" d="M145.62,42.58a1.66,1.66,0,0,0,.79-.44,3,3,0,0,0,.66-.85,4.51,4.51,0,0,0,.22-1.42l.07-2.27h4.54v2a7.91,7.91,0,0,0-.06.94,5.54,5.54,0,0,0-.07.86,2.86,2.86,0,0,1-.12.85,6.41,6.41,0,0,1-.66,1.64,6.23,6.23,0,0,1-.92,1.26,11.22,11.22,0,0,1-1.51,1.14,5.36,5.36,0,0,1-2.91.69h-3.91a5.3,5.3,0,0,1-2.9-.69,10.82,10.82,0,0,1-1.52-1.14,5.88,5.88,0,0,1-.91-1.26,5.76,5.76,0,0,1-.66-1.64,4.24,4.24,0,0,1-.19-.85,7.08,7.08,0,0,1-.07-.86,3.69,3.69,0,0,1,0-.94V9.33a3.77,3.77,0,0,1,0-.95,6.33,6.33,0,0,1,.07-.82,5.54,5.54,0,0,1,.19-.88A5.64,5.64,0,0,1,136.41,5a5.88,5.88,0,0,1,.91-1.26,9.45,9.45,0,0,1,1.52-1.14,5.3,5.3,0,0,1,2.9-.69h3.66a5.3,5.3,0,0,1,2.9.69,9.45,9.45,0,0,1,1.52,1.14A5.88,5.88,0,0,1,150.73,5a6,6,0,0,1,.67,1.64,3.33,3.33,0,0,1,.12.88,4.18,4.18,0,0,0,.07.82,8.07,8.07,0,0,0,.06.95v1.89H147.1v-5h-4.41a6.29,6.29,0,0,0-1,.19,1.53,1.53,0,0,0-.73.38,3.38,3.38,0,0,0-.66.85,4.84,4.84,0,0,0-.22,1.42L140,12.23V36.71l.06,3.16a4.84,4.84,0,0,0,.22,1.42,3.38,3.38,0,0,0,.66.85,1.79,1.79,0,0,0,1,.44,5.46,5.46,0,0,0,1.14.13h1.64a3.28,3.28,0,0,0,.91-.13"/><polygon class="cls-2" points="155.69 2.39 160.23 2.39 160.23 42.2 170.01 42.2 170.01 46.56 155.69 46.56 155.69 2.39"/><polygon class="cls-2" points="173.8 2.39 187.8 2.39 187.8 6.68 178.34 6.68 178.34 18.16 184.52 18.16 184.52 22.45 178.34 22.45 178.34 42.27 188.37 42.27 188.37 46.56 173.8 46.56 173.8 2.39"/><path class="cls-2" d="M108.75,5.49a3.1,3.1,0,1,1-3.1-3.1,3.1,3.1,0,0,1,3.1,3.1"/><path class="cls-2" d="M105.65,11.52a3.87,3.87,0,0,1-2.27-.73V46.56h4.54V10.79a3.87,3.87,0,0,1-2.27.73"/><path class="cls-2" d="M129,43.3V28.39s-.42-4.83-4.86-4.83c0,0,4.54.41,4.54-3.34V6.74s.12-4.33-5.45-4.33-10.45,0-10.45,0V46.56h4.54V26.68h5.27s1.86-.19,1.86,2.94V44.1a2.71,2.71,0,0,0,3,2.65H131v-.26A3.93,3.93,0,0,1,129,43.3m-4.86-25.23a3.23,3.23,0,0,1-3.41,3.37h-3.41V6.68h4.24A2.39,2.39,0,0,1,124.14,9Z"/></g></g></svg>